# Blender v2.92.0 OBJ File: 'lowpolyspace.blend'
# www.blender.org
mtllib lowpolyspace.mtl
o Cone
v 0.001966 -0.318879 0.229165
v 0.000733 1.000000 0.000000
v -0.001966 -0.318879 0.229165
v 0.000000 0.091919 0.500000
v -0.000733 1.000000 0.000000
v 0.386642 -0.659440 0.364583
v 0.386025 0.000000 0.250000
v 0.192829 -0.181061 0.500000
v -0.390923 -0.663230 0.366090
v -0.390313 -0.011129 0.252782
v -0.194975 -0.184099 0.500000
vt 0.353923 0.190000
vt 0.250000 0.250000
vt 0.042154 0.130000
vt 0.146077 0.130000
vt 0.250000 0.490000
vt 0.355080 0.189332
vt 0.147234 0.130000
vt 0.250000 0.250000
vt 0.250000 0.490000
vt 0.750000 0.490000
vt 0.853923 0.310000
vt 0.646077 0.130000
vt 0.542154 0.130000
vt 0.353923 0.310000
vt 0.355080 0.307997
vt 0.647233 0.130000
vt 0.750000 0.490000
vt 0.855080 0.307997
vn 0.5636 0.3981 0.7238
vn -1.0000 -0.0017 -0.0046
vn -0.5636 0.3981 0.7238
vn 1.0000 -0.0017 -0.0046
vn -0.6165 -0.4355 0.6560
vn 0.1918 -0.1678 -0.9670
vn -0.7382 0.1162 0.6645
vn 0.6165 -0.4355 0.6560
vn -0.1918 -0.1678 -0.9670
vn 0.7440 0.1151 0.6583
usemtl None
s off
f 7/1/1 2/2/1 4/3/1 8/4/1
f 4/3/2 2/2/2 1/5/2
f 10/6/3 11/7/3 4/3/3 5/8/3
f 4/3/4 3/9/4 5/8/4
f 1/10/5 6/11/5 8/12/5 4/13/5
f 1/5/6 2/2/6 7/1/6 6/14/6
f 10/6/7 9/15/7 11/16/7
f 3/17/8 4/13/8 11/16/8 9/18/8
f 3/9/9 9/15/9 10/6/9 5/8/9
f 8/12/10 6/11/10 7/1/10
